<?xml version="1.0" encoding="UTF-8" standalone="no"?>
<!-- Generator: Adobe Illustrator 15.0.0, SVG Export Plug-In . SVG Version: 6.00 Build 0)  -->

<svg
   xmlns:dc="http://purl.org/dc/elements/1.1/"
   xmlns:cc="http://creativecommons.org/ns#"
   xmlns:rdf="http://www.w3.org/1999/02/22-rdf-syntax-ns#"
   xmlns:svg="http://www.w3.org/2000/svg"
   xmlns="http://www.w3.org/2000/svg"
   xmlns:sodipodi="http://sodipodi.sourceforge.net/DTD/sodipodi-0.dtd"
   xmlns:inkscape="http://www.inkscape.org/namespaces/inkscape"
   version="1.1"
   id="Layer_1"
   x="0px"
   y="0px"
   width="21px"
   height="22px"
   viewBox="0 0 21 22"
   enable-background="new 0 0 21 22"
   xml:space="preserve"
   inkscape:version="0.91 r13725"
   sodipodi:docname="calendar-focus.svg"><metadata
     id="metadata28"><rdf:RDF><cc:Work
         rdf:about=""><dc:format>image/svg+xml</dc:format><dc:type
           rdf:resource="http://purl.org/dc/dcmitype/StillImage" /><dc:title></dc:title></cc:Work></rdf:RDF></metadata><defs
     id="defs26" /><sodipodi:namedview
     pagecolor="#ffffff"
     bordercolor="#666666"
     borderopacity="1"
     objecttolerance="10"
     gridtolerance="10"
     guidetolerance="10"
     inkscape:pageopacity="0"
     inkscape:pageshadow="2"
     inkscape:window-width="665"
     inkscape:window-height="480"
     id="namedview24"
     showgrid="false"
     inkscape:zoom="10.727273"
     inkscape:cx="10.5"
     inkscape:cy="11"
     inkscape:window-x="0"
     inkscape:window-y="0"
     inkscape:window-maximized="0"
     inkscape:current-layer="Layer_1" /><g
     id="calendar_1_"
     style="fill:#81b3d2;fill-opacity:1"><path
       d="M19.251,2.025h-2.845V0.648c0-0.381-0.294-0.689-0.656-0.689c-0.363,0-0.656,0.308-0.656,0.689v1.377h-3.938V0.648   c0-0.381-0.294-0.689-0.655-0.689c-0.363,0-0.657,0.308-0.657,0.689v1.377H5.906V0.648c0-0.381-0.294-0.689-0.656-0.689   c-0.363,0-0.657,0.308-0.657,0.689v1.377H1.75C0.784,2.025,0,2.847,0,3.862v16.302C0,21.179,0.784,22,1.75,22h17.501   C20.217,22,21,21.179,21,20.164V3.862C21,2.847,20.217,2.025,19.251,2.025z M19.688,20.164c0,0.253-0.195,0.459-0.437,0.459H1.75   c-0.241,0-0.438-0.206-0.438-0.459V3.862c0-0.253,0.196-0.459,0.438-0.459h2.844v1.378c0,0.381,0.294,0.689,0.657,0.689   c0.362,0,0.656-0.308,0.656-0.689V3.403h3.938v1.378c0,0.381,0.294,0.689,0.657,0.689c0.361,0,0.655-0.308,0.655-0.689V3.403h3.938   v1.378c0,0.381,0.293,0.689,0.656,0.689c0.362,0,0.656-0.308,0.656-0.689V3.403h2.845c0.241,0,0.437,0.206,0.437,0.459V20.164z"
       id="path4"
       style="fill:#81b3d2;fill-opacity:1" /><rect
       x="4.594"
       y="8.225"
       width="2.625"
       height="2.066"
       id="rect6"
       style="fill:#81b3d2;fill-opacity:1" /><rect
       x="4.594"
       y="11.668"
       width="2.625"
       height="2.067"
       id="rect8"
       style="fill:#81b3d2;fill-opacity:1" /><rect
       x="4.594"
       y="15.112"
       width="2.625"
       height="2.066"
       id="rect10"
       style="fill:#81b3d2;fill-opacity:1" /><rect
       x="9.188"
       y="15.112"
       width="2.625"
       height="2.066"
       id="rect12"
       style="fill:#81b3d2;fill-opacity:1" /><rect
       x="9.188"
       y="11.668"
       width="2.625"
       height="2.067"
       id="rect14"
       style="fill:#81b3d2;fill-opacity:1" /><rect
       x="9.188"
       y="8.225"
       width="2.625"
       height="2.066"
       id="rect16"
       style="fill:#81b3d2;fill-opacity:1" /><rect
       x="13.781"
       y="15.112"
       width="2.625"
       height="2.066"
       id="rect18"
       style="fill:#81b3d2;fill-opacity:1" /><rect
       x="13.781"
       y="11.668"
       width="2.625"
       height="2.067"
       id="rect20"
       style="fill:#81b3d2;fill-opacity:1" /><rect
       x="13.781"
       y="8.225"
       width="2.625"
       height="2.066"
       id="rect22"
       style="fill:#81b3d2;fill-opacity:1" /></g></svg>