<?xml version="1.0" encoding="UTF-8" standalone="no"?>
<!-- Generator: Adobe Illustrator 15.0.0, SVG Export Plug-In . SVG Version: 6.00 Build 0)  -->
<svg id="svg2" xmlns:rdf="http://www.w3.org/1999/02/22-rdf-syntax-ns#" xmlns="http://www.w3.org/2000/svg" enable-background="new 0 0 27 23" xml:space="preserve" height="23px" width="27px" version="1.1" y="0px" x="0px" xmlns:cc="http://creativecommons.org/ns#" xmlns:dc="http://purl.org/dc/elements/1.1/" viewBox="0 0 27 23"><metadata id="metadata16"><rdf:RDF><cc:Work rdf:about=""><dc:format>image/svg+xml</dc:format><dc:type rdf:resource="http://purl.org/dc/dcmitype/StillImage"/><dc:title/></cc:Work></rdf:RDF></metadata><g id="Layer_2" fill="#6a6a6a" fill-opacity=".41569"><g id="g6" fill="#6a6a6a" fill-opacity=".41569"><polygon id="polygon8" points="7.285 7.486 4.456 10.315 12.239 18.098 26.171 4.166 23.343 1.337 12.239 12.439"/><path id="path10" d="m21 20c0 0.542-0.458 1-1 1h-17c-0.542 0-1-0.458-1-1v-17c0-0.542 0.458-1 1-1h16.908l1.585-1.585c-0.442-0.257-0.948-0.415-1.493-0.415h-17c-1.65 0-3 1.35-3 3v17c0 1.65 1.35 3 3 3h17c1.65 0 3-1.35 3-3v-9.829l-2 2v7.829z"/></g></g></svg>
