<?xml version="1.0" encoding="UTF-8" standalone="no"?>
<!-- Generator: Adobe Illustrator 15.0.0, SVG Export Plug-In . SVG Version: 6.00 Build 0)  -->
<svg id="Layer_1" xmlns:rdf="http://www.w3.org/1999/02/22-rdf-syntax-ns#" xmlns="http://www.w3.org/2000/svg" enable-background="new 0 0 64 76" xml:space="preserve" height="76px" viewBox="0 0 64 76" width="64px" version="1.1" y="0px" x="0px" xmlns:cc="http://creativecommons.org/ns#" xmlns:dc="http://purl.org/dc/elements/1.1/"><metadata id="metadata9"><rdf:RDF><cc:Work rdf:about=""><dc:format>image/svg+xml</dc:format><dc:type rdf:resource="http://purl.org/dc/dcmitype/StillImage"/><dc:title/></cc:Work></rdf:RDF></metadata><path id="path3" fill="#81B3D2" clip-rule="evenodd" d="m61.097 22.501h-24.785c13.813-6.899 14.917-11.251 14.408-13.685-1.162-3.963-5.692-7.023-10.002-5.407-5.569 2.089-7.137 10.388-8.644 16.387-1.924-6.07-3.784-13.814-8.136-17.737-1.261-1.138-3.095-2.264-5.763-2.028-4.026 0.356-9.802 5.382-7.458 10.981 2.251 5.378 9.687 8.777 14.578 11.489h-22.416c-1.584 0-2.879 1.291-2.879 2.869v11.322c0 1.578 1.295 2.869 2.879 2.869h0.274v36.439h57.841v-36.439h0.103c1.586 0 2.88-1.291 2.88-2.869v-11.322c0-1.578-1.294-2.869-2.88-2.869zm-18.684-16.557c2.103-0.31 4.982 1.299 5.255 3.209 0.393 2.756-3.4 5.255-5.086 6.421-2.523 1.744-4.928 2.643-7.287 4.055 0.884-3.69 2.549-13.011 7.118-13.685zm-22.882 9.968c-2.225-1.485-6.544-4.431-6.44-7.771 0.112-3.595 5.743-6.57 8.814-3.886 3.856 3.371 5.713 11.105 7.119 16.557-3.249-1.539-6.328-2.788-9.493-4.9zm5.972 57.114h-19.367v-33.465h19.368v33.465zm0-36.502h-22.457v-10.986h22.457v10.986zm10.157 0v36.503h-7.174v-47.489h7.174v10.986zm22.351 36.502h-19.367v-33.465h19.367v33.465zm2.92-36.502h-22.287v-10.986h22.287v10.986z" fill-rule="evenodd"/></svg>
