<?xml version="1.0" encoding="UTF-8" standalone="no"?>
<!-- Generator: Adobe Illustrator 15.0.0, SVG Export Plug-In . SVG Version: 6.00 Build 0)  -->

<svg
   xmlns:dc="http://purl.org/dc/elements/1.1/"
   xmlns:cc="http://creativecommons.org/ns#"
   xmlns:rdf="http://www.w3.org/1999/02/22-rdf-syntax-ns#"
   xmlns:svg="http://www.w3.org/2000/svg"
   xmlns="http://www.w3.org/2000/svg"
   xmlns:sodipodi="http://sodipodi.sourceforge.net/DTD/sodipodi-0.dtd"
   xmlns:inkscape="http://www.inkscape.org/namespaces/inkscape"
   id="Layer_2"
   enable-background="new 0 0 74 70"
   xml:space="preserve"
   height="76px"
   viewBox="0 0 74 70"
   width="74px"
   version="1.1"
   y="0px"
   x="0px"
   inkscape:version="0.91 r13725"
   sodipodi:docname="hamburger-icon1.svg"><defs
     id="defs13" /><sodipodi:namedview
     pagecolor="#ffffff"
     bordercolor="#666666"
     borderopacity="1"
     objecttolerance="10"
     gridtolerance="10"
     guidetolerance="10"
     inkscape:pageopacity="0"
     inkscape:pageshadow="2"
     inkscape:window-width="829"
     inkscape:window-height="497"
     id="namedview11"
     showgrid="false"
     inkscape:zoom="3.8330592"
     inkscape:cx="37"
     inkscape:cy="38"
     inkscape:window-x="0"
     inkscape:window-y="0"
     inkscape:window-maximized="0"
     inkscape:current-layer="Layer_2" /><metadata
     id="metadata21"><rdf:RDF><cc:Work
         rdf:about=""><dc:format>image/svg+xml</dc:format><dc:type
           rdf:resource="http://purl.org/dc/dcmitype/StillImage" /><dc:title></dc:title></cc:Work></rdf:RDF></metadata><g
     id="g3"
     transform="translate(0.084,3.042)"
     style="fill:#81b3d2"><path
       id="path5"
       d="m 69.854,46.71 -65.803,0 c -2.274,0 -4.135,1.94 -4.135,4.313 l 0,3.504 c 0,2.372 1.861,4.313 4.135,4.313 l 0.93,0 0,1.053 c 0,5.536 4.341,10.065 9.648,10.065 l 44.646,0 c 5.306,0 9.648,-4.529 9.648,-10.065 l 0,-1.053 0.93,0 c 2.274,0 4.135,-1.941 4.135,-4.313 l 0,-3.504 c 0,-2.373 -1.86,-4.313 -4.134,-4.313 z m -3.848,13.184 c 0,3.871 -3.019,7.021 -6.73,7.021 l -44.647,0 c -3.711,0 -6.731,-3.15 -6.731,-7.021 l 0,-1.053 58.107,0 0,1.053 z m 5.065,-5.367 c 0,0.688 -0.558,1.271 -1.218,1.271 l -65.802,0 c -0.66,0 -1.217,-0.582 -1.217,-1.271 l 0,-3.504 c 0,-0.688 0.558,-1.271 1.217,-1.271 l 65.802,0 c 0.66,0 1.218,0.582 1.218,1.271 l 0,3.504 z"
       inkscape:connector-curvature="0" /><polygon
       id="polygon7"
       points="63.589,42.464 69.783,37.752 68.063,35.293 63.589,38.696 58.253,34.639 52.923,38.695 47.596,34.638 42.267,38.695 36.939,34.638 31.611,38.695 26.283,34.638 20.958,38.695 15.635,34.638 10.308,38.695 5.841,35.294 4.12,37.751 10.308,42.465 15.634,38.406 20.957,42.465 26.283,38.406 31.611,42.465 36.939,38.406 42.267,42.465 47.596,38.406 52.923,42.465 58.253,38.405 " /><path
       id="path9"
       d="m 7.978,31.544 60.877,0 c 0.041,-0.619 0.069,-1.241 0.069,-1.87 0,-0.394 -0.016,-0.783 -0.032,-1.173 C 68.227,12.657 54.186,0 36.952,0 19.719,0 5.677,12.657 5.013,28.501 c -0.017,0.39 -0.032,0.78 -0.032,1.173 0,0.629 0.028,1.251 0.07,1.87 l 2.927,0 z M 36.952,3.043 c 15.591,0 28.35,11.316 29.021,25.458 l -58.042,0 C 8.604,14.359 21.361,3.043 36.952,3.043 Z"
       inkscape:connector-curvature="0" /><ellipse
       id="ellipse11"
       rx="1.9450001"
       ry="2.03"
       cy="15.26"
       cx="36.952" /><ellipse
       id="ellipse13"
       rx="1.946"
       ry="2.03"
       cy="10.23"
       cx="29.172001" /><ellipse
       id="ellipse15"
       rx="1.946"
       ry="2.03"
       cy="10.23"
       cx="44.731998" /></g></svg>