<?xml version="1.0" encoding="UTF-8" standalone="no"?>
<!-- Generator: Adobe Illustrator 15.0.0, SVG Export Plug-In . SVG Version: 6.00 Build 0)  -->
<svg id="Layer_2" xmlns:rdf="http://www.w3.org/1999/02/22-rdf-syntax-ns#" xmlns="http://www.w3.org/2000/svg" enable-background="new 0 0 74 70" xml:space="preserve" height="70px" viewBox="0 0 74 70" width="74px" version="1.1" y="0px" x="0px" xmlns:cc="http://creativecommons.org/ns#" xmlns:dc="http://purl.org/dc/elements/1.1/"><metadata id="metadata21"><rdf:RDF><cc:Work rdf:about=""><dc:format>image/svg+xml</dc:format><dc:type rdf:resource="http://purl.org/dc/dcmitype/StillImage"/><dc:title/></cc:Work></rdf:RDF></metadata><g id="g3" fill="#81B3D2"><path id="path5" d="m69.854 46.71h-65.803c-2.274 0-4.135 1.94-4.135 4.313v3.504c0 2.372 1.861 4.313 4.135 4.313h0.93v1.053c0 5.536 4.341 10.065 9.648 10.065h44.646c5.306 0 9.648-4.529 9.648-10.065v-1.053h0.93c2.274 0 4.135-1.941 4.135-4.313v-3.504c0-2.373-1.86-4.313-4.134-4.313zm-3.848 13.184c0 3.871-3.019 7.021-6.73 7.021h-44.647c-3.711 0-6.731-3.15-6.731-7.021v-1.053h58.107v1.053zm5.065-5.367c0 0.688-0.558 1.271-1.218 1.271h-65.802c-0.66 0-1.217-0.582-1.217-1.271v-3.504c0-0.688 0.558-1.271 1.217-1.271h65.802c0.66 0 1.218 0.582 1.218 1.271v3.504z"/><polygon id="polygon7" points="15.634 38.406 20.957 42.465 26.283 38.406 31.611 42.465 36.939 38.406 42.267 42.465 47.596 38.406 52.923 42.465 58.253 38.405 63.589 42.464 69.783 37.752 68.063 35.293 63.589 38.696 58.253 34.639 52.923 38.695 47.596 34.638 42.267 38.695 36.939 34.638 31.611 38.695 26.283 34.638 20.958 38.695 15.635 34.638 10.308 38.695 5.841 35.294 4.12 37.751 10.308 42.465"/><path id="path9" d="m7.978 31.544h60.877c0.041-0.619 0.069-1.241 0.069-1.87 0-0.394-0.016-0.783-0.032-1.173-0.665-15.844-14.706-28.501-31.94-28.501-17.233 0-31.275 12.657-31.939 28.501-0.017 0.39-0.032 0.78-0.032 1.173 0 0.629 0.028 1.251 0.07 1.87h2.927zm28.974-28.501c15.591 0 28.35 11.316 29.021 25.458h-58.042c0.673-14.142 13.43-25.458 29.021-25.458z"/><ellipse id="ellipse11" rx="1.945" ry="2.03" cy="15.26" cx="36.952"/><ellipse id="ellipse13" rx="1.946" ry="2.03" cy="10.23" cx="29.172"/><ellipse id="ellipse15" rx="1.946" ry="2.03" cy="10.23" cx="44.732"/></g></svg>
