<?xml version="1.0" encoding="UTF-8" standalone="no"?>
<!-- Generator: Adobe Illustrator 15.0.0, SVG Export Plug-In . SVG Version: 6.00 Build 0)  -->

<svg
   xmlns:dc="http://purl.org/dc/elements/1.1/"
   xmlns:cc="http://creativecommons.org/ns#"
   xmlns:rdf="http://www.w3.org/1999/02/22-rdf-syntax-ns#"
   xmlns:svg="http://www.w3.org/2000/svg"
   xmlns="http://www.w3.org/2000/svg"
   xmlns:sodipodi="http://sodipodi.sourceforge.net/DTD/sodipodi-0.dtd"
   xmlns:inkscape="http://www.inkscape.org/namespaces/inkscape"
   id="Layer_1"
   enable-background="new 0 0 75 72"
   xml:space="preserve"
   height="76px"
   viewBox="0 0 75 72"
   width="75px"
   version="1.1"
   y="30px"
   x="0px"
   inkscape:version="0.91 r13725"
   sodipodi:docname="house-icon1.svg"><defs
     id="defs18" /><sodipodi:namedview
     pagecolor="#ffffff"
     bordercolor="#666666"
     borderopacity="1"
     objecttolerance="10"
     gridtolerance="10"
     guidetolerance="10"
     inkscape:pageopacity="0"
     inkscape:pageshadow="2"
     inkscape:window-width="1011"
     inkscape:window-height="694"
     id="namedview16"
     showgrid="false"
     inkscape:zoom="4.3915053"
     inkscape:cx="8.5896603"
     inkscape:cy="47.337833"
     inkscape:window-x="30"
     inkscape:window-y="82"
     inkscape:window-maximized="0"
     inkscape:current-layer="Layer_1" /><metadata
     id="metadata31"><rdf:RDF><cc:Work
         rdf:about=""><dc:format>image/svg+xml</dc:format><dc:type
           rdf:resource="http://purl.org/dc/dcmitype/StillImage" /><dc:title></dc:title></cc:Work></rdf:RDF></metadata><g
     id="g3"
     transform="translate(0,1.9322063)"
     style="fill:#81b3d2"><path
       id="path5"
       d="m 29.656,65.033 16,0 0,-23.823 -16,0 0,23.823 z m 2.937,-20.899 10.125,0 0,17.976 -10.125,0 0,-17.976 z"
       inkscape:connector-curvature="0" /><path
       id="path7"
       d="m 72.771,39.253 2.076,-2.068 -9.908,-9.865 0,-27.32 -13.812,0 0,13.567 L 37.5,0 0.152,37.185 l 2.077,2.068 7.832,-7.795 0,37.618 -3.937,0 0,2.924 63.875,0 0,-2.924 -5.059,0 0,-37.618 7.831,7.795 z m -10.769,29.823 -49.003,0 0,-40.542 24.501,-24.385 24.502,24.385 0,40.542 z m 0,-44.682 -7.938,-7.902 0,-13.568 7.938,0 0,21.47 z"
       inkscape:connector-curvature="0" /><path
       id="path9"
       d="m 29.906,27.08 c 0,4.261 3.47,7.713 7.75,7.713 4.279,0 7.75,-3.452 7.75,-7.713 0,-4.259 -3.471,-7.713 -7.75,-7.713 -4.281,0 -7.75,3.454 -7.75,7.713 z m 7.75,-4.945 c 2.744,0 4.969,2.214 4.969,4.945 0,2.732 -2.225,4.948 -4.969,4.948 -2.746,0 -4.97,-2.216 -4.97,-4.948 0,-2.731 2.225,-4.945 4.97,-4.945 z"
       inkscape:connector-curvature="0" /><rect
       id="rect11"
       height="3.9189999"
       width="3"
       y="41.209999"
       x="17.061001" /><rect
       id="rect13"
       height="3.9189999"
       width="3"
       y="41.209999"
       x="22.999001" /><rect
       id="rect15"
       height="3.9189999"
       width="3"
       y="47.181999"
       x="17.061001" /><rect
       id="rect17"
       height="3.9189999"
       width="3"
       y="47.181999"
       x="22.999001" /><rect
       id="rect19"
       height="3.9189999"
       width="3"
       y="41.209999"
       x="48.998001" /><rect
       id="rect21"
       height="3.9189999"
       width="3"
       y="41.209999"
       x="54.936001" /><rect
       id="rect23"
       height="3.9189999"
       width="3"
       y="47.181999"
       x="48.998001" /><rect
       id="rect25"
       height="3.9189999"
       width="3"
       y="47.181999"
       x="54.936001" /></g></svg>