<?xml version="1.0" encoding="UTF-8" standalone="no"?>
<!-- Generator: Adobe Illustrator 15.0.0, SVG Export Plug-In . SVG Version: 6.00 Build 0)  -->
<svg id="Layer_1" xmlns:rdf="http://www.w3.org/1999/02/22-rdf-syntax-ns#" xmlns="http://www.w3.org/2000/svg" enable-background="new 0 0 75 72" xml:space="preserve" height="72px" viewBox="0 0 75 72" width="75px" version="1.1" y="0px" x="0px" xmlns:cc="http://creativecommons.org/ns#" xmlns:dc="http://purl.org/dc/elements/1.1/"><metadata id="metadata31"><rdf:RDF><cc:Work rdf:about=""><dc:format>image/svg+xml</dc:format><dc:type rdf:resource="http://purl.org/dc/dcmitype/StillImage"/><dc:title/></cc:Work></rdf:RDF></metadata><g id="g3" fill="#81B3D2"><path id="path5" d="m29.656 65.033h16v-23.823h-16v23.823zm2.937-20.899h10.125v17.976h-10.125v-17.976z"/><path id="path7" d="m72.771 39.253l2.076-2.068-9.908-9.865v-27.32h-13.812v13.567l-13.627-13.567-37.348 37.185 2.077 2.068 7.832-7.795v37.618h-3.937v2.924h63.875v-2.924h-5.059v-37.618l7.831 7.795zm-10.769 29.823h-49.003v-40.542l24.501-24.385 24.502 24.385v40.542zm0-44.682l-7.938-7.902v-13.568h7.938v21.47z"/><path id="path9" d="m29.906 27.08c0 4.261 3.47 7.713 7.75 7.713 4.279 0 7.75-3.452 7.75-7.713 0-4.259-3.471-7.713-7.75-7.713-4.281 0-7.75 3.454-7.75 7.713zm7.75-4.945c2.744 0 4.969 2.214 4.969 4.945 0 2.732-2.225 4.948-4.969 4.948-2.746 0-4.97-2.216-4.97-4.948 0-2.731 2.225-4.945 4.97-4.945z"/><rect id="rect11" height="3.919" width="3" y="41.21" x="17.061"/><rect id="rect13" height="3.919" width="3" y="41.21" x="22.999"/><rect id="rect15" height="3.919" width="3" y="47.182" x="17.061"/><rect id="rect17" height="3.919" width="3" y="47.182" x="22.999"/><rect id="rect19" height="3.919" width="3" y="41.21" x="48.998"/><rect id="rect21" height="3.919" width="3" y="41.21" x="54.936"/><rect id="rect23" height="3.919" width="3" y="47.182" x="48.998"/><rect id="rect25" height="3.919" width="3" y="47.182" x="54.936"/></g></svg>
