<?xml version="1.0" encoding="UTF-8" standalone="no"?>
<!-- Generator: Adobe Illustrator 15.0.0, SVG Export Plug-In . SVG Version: 6.00 Build 0)  -->
<svg id="Layer_1" xmlns:rdf="http://www.w3.org/1999/02/22-rdf-syntax-ns#" xmlns="http://www.w3.org/2000/svg" enable-background="new 0 0 17 15" xml:space="preserve" height="15px" viewBox="0 0 17 15" width="17px" version="1.1" y="0px" x="0px" xmlns:cc="http://creativecommons.org/ns#" xmlns:dc="http://purl.org/dc/elements/1.1/"><metadata id="metadata14"><rdf:RDF><cc:Work rdf:about=""><dc:format>image/svg+xml</dc:format><dc:type rdf:resource="http://purl.org/dc/dcmitype/StillImage"/><dc:title/></cc:Work></rdf:RDF></metadata><g id="W6EeEF_1_"><g id="g6"><path id="path8" d="m10.95 0.144c1.685-0.496 2.984 0.27 3.577 1.179 0.673-0.231 1.331-0.481 2.011-0.708-0.004 0.861-0.522 1.513-0.857 1.768 0.685 0.17 1.304-0.491 1.304-0.491-0.169 1-1.006 1.788-1.563 2.024-0.231 6.75-3.175 11.217-10.077 11.082h-0.446c-0.41 0-4.164-0.46-4.898-1.887 2.271 0.196 3.893-0.422 4.693-1.177-0.96-0.3-2.679-0.477-2.979-2.95 0.349 0.106 0.564 0.228 1.19 0.119-1.2-0.856-2.531-1.573-2.457-3.773 0.285 0.328 1.067 0.536 1.34 0.472-0.703-0.241-1.97-3.36-0.894-4.952 1.818 1.854 3.735 3.606 7.152 3.773 0.208-2.293 1.137-3.83 2.904-4.479z" fill="#fff"/></g></g></svg>
